<svg xmlns="http://www.w3.org/2000/svg" version="1.1" xmlns:xlink="http://www.w3.org/1999/xlink" xmlns:svgjs="http://svgjs.dev/svgjs" width="1440" height="560" preserveAspectRatio="none" viewBox="0 0 1440 560"><g mask="url(&quot;#SvgjsMask1000&quot;)" fill="none"><path d="M294.51 504.03L324.01 504.03L324.01 532.25L294.51 532.25z" stroke="#e73635"></path><path d="M536.16 472.29 a47.33 47.33 0 1 0 94.66 0 a47.33 47.33 0 1 0 -94.66 0z" fill="#d3b714"></path><path d="M1125.94 44.75L1167.31 44.75L1167.31 96.16L1125.94 96.16z" stroke="#d3b714"></path><path d="M1147.65 295.5L1160.9 295.5L1160.9 308.75L1147.65 308.75z" fill="#d3b714"></path><path d="M190.61 96.01L224.91 96.01L224.91 131.3L190.61 131.3z" fill="#d3b714"></path><path d="M855.26 161.96a20.51 20.51 0 1 0 0.66-41.02z" stroke="#d3b714"></path><path d="M1221.83 300.66L1270.55 300.66L1270.55 301.13L1221.83 301.13z" fill="#e73635"></path><path d="M593.96 390.55a53.55 53.55 0 1 0-83.78-66.72z" stroke="#e73635"></path><path d="M652.85 450 a44.99 44.99 0 1 0 89.98 0 a44.99 44.99 0 1 0 -89.98 0z" stroke="#037b0b"></path><path d="M1058.07 279.63a28.25 28.25 0 1 0 25.75 50.29z" stroke="#e73635"></path><path d="M786.13 144.16 a53.5 53.5 0 1 0 107 0 a53.5 53.5 0 1 0 -107 0z" stroke="#d3b714"></path><path d="M168.34 411.33L210.73 411.33L210.73 453.72L168.34 453.72z" fill="#e73635"></path><path d="M77.23 567.28a40.53 40.53 0 1 0 23.76-77.5z" stroke="#e73635"></path><path d="M1330.15 98.7L1344.55 98.7L1344.55 110.63L1330.15 110.63z" fill="#037b0b"></path><path d="M971.24 409.03a17.47 17.47 0 1 0-34.41 6.09z" fill="#e73635"></path><path d="M1142.58 574.62a39.97 39.97 0 1 0-13.56-78.78z" stroke="#037b0b"></path><path d="M733.53 267.81 a3.79 3.79 0 1 0 7.58 0 a3.79 3.79 0 1 0 -7.58 0z" fill="#d3b714"></path><path d="M128.41 414.55L155.52 414.55L155.52 441.66L128.41 441.66z" fill="#037b0b"></path><path d="M557.1 495.48 a24.54 24.54 0 1 0 49.08 0 a24.54 24.54 0 1 0 -49.08 0z" fill="#d3b714"></path><path d="M66.42 34.1L106.68 34.1L106.68 72.39L66.42 72.39z" fill="#d3b714"></path><path d="M823.08 563.16a45.79 45.79 0 1 0 89.71-18.42z" stroke="#d3b714"></path><path d="M1191.96 508.79L1221.71 508.79L1221.71 538.54L1191.96 538.54z" stroke="#037b0b"></path><path d="M1041.56 260.96a12.97 12.97 0 1 0-9.18 24.26z" stroke="#037b0b"></path><path d="M744.06 461.76a30.73 30.73 0 1 0-2.75-61.4z" fill="#d3b714"></path><path d="M632.12 486.94a24.96 24.96 0 1 0 44.12-23.36z" fill="#e73635"></path><path d="M822.68 452.11a4.77 4.77 0 1 0 7.82 5.46z" fill="#037b0b"></path><path d="M851.63 222.76 a34.89 34.89 0 1 0 69.78 0 a34.89 34.89 0 1 0 -69.78 0z" fill="#e73635"></path><path d="M307.47 177.33L308.56 177.33L308.56 178.42L307.47 178.42z" fill="#d3b714"></path><path d="M106.09 77.67L147.1 77.67L147.1 118.68L106.09 118.68z" fill="#037b0b"></path><path d="M1207.98 226.91 a33.75 33.75 0 1 0 67.5 0 a33.75 33.75 0 1 0 -67.5 0z" fill="#037b0b"></path><path d="M646.55 364.73L677.81 364.73L677.81 377L646.55 377z" fill="#037b0b"></path><path d="M1029.31 75.57a0.46 0.46 0 1 0-0.87 0.3z" fill="#d3b714"></path><path d="M1345.8 261.76L1375.99 261.76L1375.99 314.88L1345.8 314.88z" stroke="#e73635"></path></g><defs><mask id="SvgjsMask1000"><rect width="1440" height="560" fill="#ffffff"></rect></mask></defs></svg>