<svg id="visual" viewBox="0 0 900 600" width="900" height="600" xmlns="http://www.w3.org/2000/svg" xmlns:xlink="http://www.w3.org/1999/xlink" version="1.1"><rect x="0" y="0" width="900" height="600" fill="#001220"></rect><defs><linearGradient id="grad1_0" x1="33.3%" y1="0%" x2="100%" y2="100%"><stop offset="20%" stop-color="#001220" stop-opacity="1"></stop><stop offset="80%" stop-color="#001220" stop-opacity="1"></stop></linearGradient></defs><defs><linearGradient id="grad2_0" x1="0%" y1="0%" x2="66.7%" y2="100%"><stop offset="20%" stop-color="#001220" stop-opacity="1"></stop><stop offset="80%" stop-color="#001220" stop-opacity="1"></stop></linearGradient></defs><g transform="translate(900, 0)"><path d="M0 486.7C-56.2 456.2 -112.3 425.7 -165.7 400C-219.1 374.4 -269.6 353.5 -320.3 320.3C-371 287.2 -421.9 241.7 -449.7 186.3C-477.5 130.8 -482.1 65.4 -486.7 0L0 0Z" fill="#FBAE3C"></path></g><g transform="translate(0, 600)"><path d="M0 -486.7C67.4 -484.2 134.7 -481.6 186.3 -449.7C237.8 -417.8 273.5 -356.7 305.5 -305.5C337.5 -254.3 365.8 -213 395.4 -163.8C425 -114.5 455.9 -57.3 486.7 0L0 0Z" fill="#FBAE3C"></path></g></svg>